<svg width="204" height="48" viewBox="0 0 204 48" fill="none" xmlns="http://www.w3.org/2000/svg">
<path d="M20 41.0002H6.5V37.0002L9.5 35.0002H20V41.0002Z" fill="#145BC0" stroke="#145BC0" stroke-linejoin="round"/>
<path d="M45.5 35V40.5H57.5V38.5L51.5 35H45.5Z" fill="#145BC0" stroke="#145BC0" stroke-linejoin="round"/>
<path d="M0.5 37.5002V28.0002H42.5L50 33.0002H9.5L0.5 37.5002Z" fill="#145BC0" stroke="#145BC0" stroke-linejoin="round"/>
<path d="M57.5 27.5002V35.0002L45.5 27.5002H57.5Z" fill="#145BC0" stroke="#145BC0" stroke-linejoin="round"/>
<path d="M32 9.50017C23.8476 10.6865 22.2417 15.2452 21 25.5002H10.5C14.3506 11.6558 20.7479 6.48163 32 6.00017C41.8329 6.57138 49.9818 11.6253 54 25.5002H42.5C41.5181 15.0801 40.1287 10.3619 32 9.50017Z" fill="#145BC0" stroke="#145BC0" stroke-linejoin="round"/>
<path d="M70.0227 36H66.2955L74.6705 12.7273H78.7273L87.1023 36H83.375L76.7955 16.9545H76.6136L70.0227 36ZM70.6477 26.8864H82.7386V29.8409H70.6477V26.8864ZM90.1903 36V18.5455H93.4744V21.3182H93.6562C93.9744 20.3788 94.535 19.6402 95.3381 19.1023C96.1487 18.5568 97.0653 18.2841 98.0881 18.2841C98.3002 18.2841 98.5502 18.2917 98.8381 18.3068C99.1335 18.322 99.3646 18.3409 99.5312 18.3636V21.6136C99.3949 21.5758 99.1525 21.5341 98.804 21.4886C98.4555 21.4356 98.107 21.4091 97.7585 21.4091C96.9555 21.4091 96.2396 21.5795 95.6108 21.9205C94.9896 22.2538 94.4972 22.7197 94.1335 23.3182C93.7699 23.9091 93.5881 24.5833 93.5881 25.3409V36H90.1903ZM111.651 18.5455V21.2727H102.116V18.5455H111.651ZM104.673 14.3636H108.071V30.875C108.071 31.5341 108.17 32.0303 108.366 32.3636C108.563 32.6894 108.817 32.9129 109.128 33.0341C109.446 33.1477 109.791 33.2045 110.162 33.2045C110.435 33.2045 110.673 33.1856 110.878 33.1477C111.082 33.1098 111.241 33.0795 111.355 33.0568L111.969 35.8636C111.772 35.9394 111.491 36.0152 111.128 36.0909C110.764 36.1742 110.31 36.2197 109.764 36.2273C108.87 36.2424 108.037 36.0833 107.264 35.75C106.491 35.4167 105.866 34.9015 105.389 34.2045C104.912 33.5076 104.673 32.6326 104.673 31.5795V14.3636ZM119.182 25.6364V36H115.784V12.7273H119.136V21.3864H119.352C119.761 20.447 120.386 19.7008 121.227 19.1477C122.068 18.5947 123.167 18.3182 124.523 18.3182C125.72 18.3182 126.765 18.5644 127.659 19.0568C128.561 19.5492 129.258 20.2841 129.75 21.2614C130.25 22.2311 130.5 23.4432 130.5 24.8977V36H127.102V25.3068C127.102 24.0265 126.773 23.0341 126.114 22.3295C125.455 21.6174 124.538 21.2614 123.364 21.2614C122.561 21.2614 121.841 21.4318 121.205 21.7727C120.576 22.1136 120.08 22.6136 119.716 23.2727C119.36 23.9242 119.182 24.7121 119.182 25.6364ZM148 18.8409C147.879 17.7652 147.379 16.9318 146.5 16.3409C145.621 15.7424 144.515 15.4432 143.182 15.4432C142.227 15.4432 141.402 15.5947 140.705 15.8977C140.008 16.1932 139.466 16.6023 139.08 17.125C138.701 17.6402 138.511 18.2273 138.511 18.8864C138.511 19.4394 138.64 19.9167 138.898 20.3182C139.163 20.7197 139.508 21.0568 139.932 21.3295C140.364 21.5947 140.826 21.8182 141.318 22C141.811 22.1742 142.284 22.3182 142.739 22.4318L145.011 23.0227C145.754 23.2045 146.515 23.4508 147.295 23.7614C148.076 24.072 148.799 24.4811 149.466 24.9886C150.133 25.4962 150.67 26.125 151.08 26.875C151.496 27.625 151.705 28.5227 151.705 29.5682C151.705 30.8864 151.364 32.0568 150.682 33.0795C150.008 34.1023 149.027 34.9091 147.739 35.5C146.458 36.0909 144.909 36.3864 143.091 36.3864C141.348 36.3864 139.841 36.1098 138.568 35.5568C137.295 35.0038 136.299 34.2197 135.58 33.2045C134.86 32.1818 134.462 30.9697 134.386 29.5682H137.909C137.977 30.4091 138.25 31.1098 138.727 31.6705C139.212 32.2235 139.83 32.6364 140.58 32.9091C141.337 33.1742 142.167 33.3068 143.068 33.3068C144.061 33.3068 144.943 33.1515 145.716 32.8409C146.496 32.5227 147.11 32.0833 147.557 31.5227C148.004 30.9545 148.227 30.2917 148.227 29.5341C148.227 28.8447 148.03 28.2803 147.636 27.8409C147.25 27.4015 146.723 27.0379 146.057 26.75C145.398 26.4621 144.652 26.2083 143.818 25.9886L141.068 25.2386C139.205 24.7311 137.727 23.9848 136.636 23C135.553 22.0152 135.011 20.7121 135.011 19.0909C135.011 17.75 135.375 16.5795 136.102 15.5795C136.83 14.5795 137.814 13.803 139.057 13.25C140.299 12.6894 141.701 12.4091 143.261 12.4091C144.837 12.4091 146.227 12.6856 147.432 13.2386C148.644 13.7917 149.598 14.553 150.295 15.5227C150.992 16.4848 151.356 17.5909 151.386 18.8409H148ZM163.151 36.3523C161.431 36.3523 159.95 35.9848 158.707 35.25C157.473 34.5076 156.518 33.4659 155.844 32.125C155.177 30.7765 154.844 29.197 154.844 27.3864C154.844 25.5985 155.177 24.0227 155.844 22.6591C156.518 21.2955 157.457 20.2311 158.662 19.4659C159.874 18.7008 161.291 18.3182 162.912 18.3182C163.897 18.3182 164.851 18.4811 165.776 18.8068C166.7 19.1326 167.529 19.6439 168.264 20.3409C168.999 21.0379 169.579 21.9432 170.003 23.0568C170.427 24.1629 170.639 25.5076 170.639 27.0909V28.2955H156.764V25.75H167.31C167.31 24.8561 167.128 24.0644 166.764 23.375C166.401 22.678 165.889 22.1288 165.23 21.7273C164.579 21.3258 163.813 21.125 162.935 21.125C161.98 21.125 161.147 21.3598 160.435 21.8295C159.73 22.2917 159.185 22.8977 158.798 23.6477C158.42 24.3902 158.23 25.197 158.23 26.0682V28.0568C158.23 29.2235 158.435 30.2159 158.844 31.0341C159.26 31.8523 159.84 32.4773 160.582 32.9091C161.325 33.3333 162.192 33.5455 163.185 33.5455C163.829 33.5455 164.416 33.4545 164.946 33.2727C165.476 33.0833 165.935 32.803 166.321 32.4318C166.707 32.0606 167.003 31.6023 167.207 31.0568L170.423 31.6364C170.166 32.5833 169.704 33.4129 169.037 34.125C168.378 34.8295 167.548 35.3788 166.548 35.7727C165.556 36.1591 164.423 36.3523 163.151 36.3523ZM182.557 18.5455V21.2727H173.023V18.5455H182.557ZM175.58 14.3636H178.977V30.875C178.977 31.5341 179.076 32.0303 179.273 32.3636C179.47 32.6894 179.723 32.9129 180.034 33.0341C180.352 33.1477 180.697 33.2045 181.068 33.2045C181.341 33.2045 181.58 33.1856 181.784 33.1477C181.989 33.1098 182.148 33.0795 182.261 33.0568L182.875 35.8636C182.678 35.9394 182.398 36.0152 182.034 36.0909C181.67 36.1742 181.216 36.2197 180.67 36.2273C179.777 36.2424 178.943 36.0833 178.17 35.75C177.398 35.4167 176.773 34.9015 176.295 34.2045C175.818 33.5076 175.58 32.6326 175.58 31.5795V14.3636ZM197.372 28.7614V18.5455H200.781V36H197.44V32.9773H197.259C196.857 33.9091 196.213 34.6856 195.327 35.3068C194.448 35.9205 193.353 36.2273 192.043 36.2273C190.921 36.2273 189.929 35.9811 189.065 35.4886C188.209 34.9886 187.535 34.25 187.043 33.2727C186.558 32.2955 186.315 31.0871 186.315 29.6477V18.5455H189.713V29.2386C189.713 30.428 190.043 31.375 190.702 32.0795C191.361 32.7841 192.217 33.1364 193.27 33.1364C193.906 33.1364 194.539 32.9773 195.168 32.6591C195.804 32.3409 196.33 31.8598 196.747 31.2159C197.171 30.572 197.38 29.7538 197.372 28.7614Z" fill="black"/>
</svg>
